<?xml version="1.0" encoding="UTF-8"?>
<svg width="76px" height="87px" viewBox="0 0 76 87" version="1.1" xmlns="http://www.w3.org/2000/svg" xmlns:xlink="http://www.w3.org/1999/xlink">
    <!-- Generator: Sketch 45.1 (43504) - http://www.bohemiancoding.com/sketch -->
    <title>icon/customer/male</title>
    <desc>Created with Sketch.</desc>
    <defs></defs>
    <g id="1---Welcome---Log-In-/-New-Customer" stroke="none" stroke-width="1" fill="none" fill-rule="evenodd" stroke-linecap="round" stroke-linejoin="round">
        <g id="Customer-Type" transform="translate(-198.000000, -184.000000)" stroke="#59595C">
            <g id="Content" transform="translate(0.000000, 32.000000)">
                <g id="icon/customer/male" transform="translate(191.000000, 153.000000)">
                    <g id="Page-1" transform="translate(8.000000, 0.000000)">
                        <path d="M36.6246,0.4997 C8.6756,0.4997 15.6626,27.8817 15.6626,27.8817 C15.6626,27.8817 14.6966,29.0077 13.9156,31.3047 C12.1686,36.4377 16.5016,37.9447 17.4086,43.2827 C19.1556,53.5517 25.3796,55.2627 25.3796,58.6857 C25.3796,62.1077 17.4086,63.8187 17.4086,63.8187 C-1.8064,68.9527 0.5966,83.7137 0.5966,83.7137" id="Stroke-1" stroke-width="3"></path>
                        <path d="M37.2242,0.4997 C65.1732,0.4997 58.1862,27.8817 58.1862,27.8817 C58.1862,27.8817 59.1522,29.0077 59.9332,31.3047 C61.6802,36.4377 57.3472,37.9447 56.4402,43.2827 C54.6932,53.5517 48.4692,55.2627 48.4692,58.6857 C48.4692,62.1077 56.4402,63.8187 56.4402,63.8187 C75.6552,68.9527 73.2522,83.7137 73.2522,83.7137" id="Stroke-3" stroke-width="3"></path>
                    </g>
                </g>
            </g>
        </g>
    </g>
</svg>