<?xml version="1.0" encoding="UTF-8"?>
<svg width="87px" height="91px" viewBox="0 0 87 91" version="1.1" xmlns="http://www.w3.org/2000/svg" xmlns:xlink="http://www.w3.org/1999/xlink">
    <!-- Generator: Sketch 45.1 (43504) - http://www.bohemiancoding.com/sketch -->
    <title>icon/customer/female/new</title>
    <desc>Created with Sketch.</desc>
    <defs></defs>
    <g id="1---Welcome---Log-In-/-New-Customer" stroke="none" stroke-width="1" fill="none" fill-rule="evenodd" stroke-linecap="round" stroke-linejoin="round">
        <g id="Customer-Type" transform="translate(-41.000000, -185.000000)">
            <g id="Content" transform="translate(0.000000, 32.000000)">
                <g id="icon/customer/female/new" transform="translate(40.000000, 153.000000)">
                    <g id="Page-1" transform="translate(2.000000, 1.000000)">
                        <path d="M36.6245,0.4997 C8.6755,0.4997 15.6625,27.8817 15.6625,27.8817 C15.6625,27.8817 14.6965,29.0077 13.9155,31.3047 C12.1685,36.4377 16.5015,37.9447 17.4095,43.2827 C19.1555,53.5517 25.3795,55.2627 25.3795,58.6857 C25.3795,62.1077 17.4095,63.8187 17.4095,63.8187 C-1.8065,68.9527 0.5965,83.7137 0.5965,83.7137" id="Stroke-1" stroke="#59595C" stroke-width="3"></path>
                        <path d="M37.2241,0.4997 C65.1731,0.4997 58.1861,27.8817 58.1861,27.8817 C58.1861,27.8817 59.1521,29.0077 59.9331,31.3047 C61.6801,36.4377 57.3481,37.9447 56.4401,43.2827 C54.6931,53.5517 48.4691,55.2627 48.4691,58.6857 C48.4691,60.9407 51.9331,62.4537 54.2931,63.2237" id="Stroke-3" stroke="#59595C" stroke-width="3"></path>
                        <path d="M69.6528,66.2136 L69.6528,81.1536" id="Stroke-5" stroke="#88BB00" stroke-width="3"></path>
                        <path d="M77.1226,73.6833 L62.1826,73.6833" id="Stroke-7" stroke="#88BB00" stroke-width="3"></path>
                        <path d="M69.6528,59.654 C77.3878,59.654 83.6818,65.948 83.6818,73.684 C83.6818,81.42 77.3878,87.714 69.6528,87.714 C61.9168,87.714 55.6228,81.42 55.6228,73.684 C55.6228,65.948 61.9168,59.654 69.6528,59.654" id="Stroke-9" stroke="#88BB00" stroke-width="3"></path>
                    </g>
                </g>
            </g>
        </g>
    </g>
</svg>