<?xml version="1.0" encoding="UTF-8"?>
<svg width="63px" height="38px" viewBox="0 0 63 38" version="1.1" xmlns="http://www.w3.org/2000/svg" xmlns:xlink="http://www.w3.org/1999/xlink">
    <!-- Generator: Sketch 45.1 (43504) - http://www.bohemiancoding.com/sketch -->
    <title>Page 1</title>
    <desc>Created with Sketch.</desc>
    <defs></defs>
    <g id="1---Welcome---Log-In-/-New-Customer" stroke="none" stroke-width="1" fill="none" fill-rule="evenodd">
        <g id="Welcome-(full)" transform="translate(-30.000000, -248.000000)">
            <g id="Page-1" transform="translate(32.000000, 250.000000)">
                <path d="M57.2948249,34.2963785 C57.6970661,34.2963785 58.0665825,34.1245738 58.3351978,33.8532314 C58.6044949,33.5818891 58.7735725,33.2110091 58.7735725,32.8135403 L58.7735725,1.82187985 C58.7735725,1.42236572 58.6010861,1.05216748 58.3304255,0.782188657 C58.0590831,0.511528066 57.6895666,0.340405122 57.2948249,0.340405122 L1.81894826,0.340405122 C1.42488825,0.340405122 1.05537178,0.511528066 0.784029422,0.782188657 C0.51336883,1.05216748 0.340882357,1.42236572 0.340882357,1.82187985 L0.340882357,32.8135403 C0.340882357,33.2110091 0.509960007,33.5818891 0.779257069,33.8532314 C1.04787237,34.1245738 1.41738884,34.2963785 1.81894826,34.2963785 L57.2948249,34.2963785 Z" id="Stroke-1" stroke="#88BB00" stroke-width="3" stroke-linecap="round" stroke-linejoin="round"></path>
                <path d="M33.1926696,11.9505855 C33.1926696,11.9505855 31.2755472,10.746589 29.389786,10.746589 C27.5033431,10.746589 25.8909695,11.870819 25.8909695,13.7122655 C25.8909695,17.7742197 33.7401267,16.0704897 33.7401267,20.0506321 C33.7401267,23.0374433 30.0858678,22.9460868 29.6468113,22.9460868 C27.5340225,22.9460868 25.3741919,21.3950721 25.3741919,21.3950721" id="Stroke-3" stroke="#666666" stroke-width="2.5" stroke-linecap="round"></path>
                <path d="M29.5987469,8.49315211 L29.6689687,25.1377559" id="Stroke-5" stroke="#666666" stroke-width="2.5" stroke-linecap="round"></path>
                <path d="M9.12385265,1.27074125 C9.21589089,1.7200242 9.26429618,2.18635126 9.26429618,2.66358656 C9.26429618,6.48010544 6.1704479,9.57395371 2.35324727,9.57395371 C1.65375667,9.57395371 0.978127836,9.46964371 0.341359593,9.2767043" id="Stroke-7" stroke="#88BB00" stroke-width="3" stroke-linecap="round" stroke-linejoin="round"></path>
                <path d="M50.011737,1.17481696 C49.9067452,1.65409755 49.8508405,2.15246756 49.8508405,2.66379109 C49.8508405,6.4796282 52.9446888,9.57347648 56.7612076,9.57347648 C57.46138,9.57347648 58.1370088,9.46984824 58.7737771,9.27690883" id="Stroke-9" stroke="#88BB00" stroke-width="3" stroke-linecap="round" stroke-linejoin="round"></path>
                <path d="M9.08321947,33.6266129 C9.20184653,33.1200617 9.26456889,32.5910123 9.26456889,32.0483275 C9.26456889,28.2318087 6.17072061,25.1379604 2.35351997,25.1379604 C1.65402937,25.1379604 0.977718778,25.2415886 0.341632299,25.434528" id="Stroke-11" stroke="#88BB00" stroke-width="3" stroke-linecap="round" stroke-linejoin="round"></path>
                <path d="M49.9917612,33.4434909 C49.8990412,32.9928444 49.850636,32.5258355 49.850636,32.0479185 C49.850636,28.2313996 52.9444842,25.1375513 56.7616849,25.1375513 C57.4611755,25.1375513 58.1368043,25.2418613 58.7735725,25.4348007" id="Stroke-13" stroke="#88BB00" stroke-width="3" stroke-linecap="round" stroke-linejoin="round"></path>
                <path d="M15.9068662,17.2961663 C15.9068662,19.0135316 14.5378826,20.3804699 12.8430155,20.3804699 C11.1692831,20.3804699 9.79961783,19.0135316 9.79961783,17.2961663 C9.79961783,15.6258427 11.1692831,14.2561774 12.8430155,14.2561774 C14.5378826,14.2561774 15.9068662,15.6258427 15.9068662,17.2961663" id="Fill-15" fill="#88BB00"></path>
                <path d="M49.3153825,17.2961663 C49.3153825,19.0135316 47.9470807,20.3804699 46.2515318,20.3804699 C44.5777995,20.3804699 43.2081342,19.0135316 43.2081342,17.2961663 C43.2081342,15.6258427 44.5777995,14.2561774 46.2515318,14.2561774 C47.9470807,14.2561774 49.3153825,15.6258427 49.3153825,17.2961663" id="Fill-17" fill="#88BB00"></path>
                <path d="M39.906484,17.3188009 C39.906484,9.94824254 35.3229798,3.97393835 29.6684233,3.97393835 C24.0138667,3.97393835 19.4303625,9.94824254 19.4303625,17.3188009 C19.4303625,24.6893592 24.0138667,30.6636634 29.6684233,30.6636634 C35.3229798,30.6636634 39.906484,24.6893592 39.906484,17.3188009 Z" id="Stroke-19" stroke="#88BB00" stroke-width="3" stroke-linecap="round" stroke-linejoin="round"></path>
            </g>
        </g>
    </g>
</svg>