<?xml version="1.0" encoding="UTF-8"?>
<svg width="18px" height="17px" viewBox="0 0 18 17" version="1.1" xmlns="http://www.w3.org/2000/svg" xmlns:xlink="http://www.w3.org/1999/xlink">
    <!-- Generator: Sketch 46.2 (44496) - http://www.bohemiancoding.com/sketch -->
    <title>Caution</title>
    <desc>Created with Sketch.</desc>
    <defs></defs>
    <g id="Symbols" stroke="none" stroke-width="1" fill="none" fill-rule="evenodd">
        <g id="text/input/error" transform="translate(-6.000000, -6.000000)" fill="#CC4E00">
            <path d="M15.9064348,19.8529981 C16.1591934,19.851321 16.288825,19.7326606 16.2902876,19.4897619 C16.2939056,18.891824 16.2938478,18.2938485 16.2903646,17.6959107 C16.2889405,17.4522959 16.1598092,17.3322222 15.9081283,17.3315061 C15.3081972,17.3298667 14.7082468,17.3300928 14.1082964,17.3313931 C13.8411814,17.3319584 13.7167843,17.4540484 13.7160337,17.7180335 C13.7143594,18.3002555 13.7143594,18.8824586 13.7159952,19.4646805 C13.7167458,19.7358075 13.8403923,19.8523386 14.1226721,19.8532996 C14.4119184,19.8542607 15.6011192,19.8550144 15.9064348,19.8529981 M16.4489401,11.444501 C16.4599287,11.1672309 16.3241003,11.032685 16.0330065,11.0323081 C15.347052,11.0314036 14.6610783,11.0314225 13.9751238,11.0323081 C13.6793728,11.032685 13.5460847,11.1690211 13.5570156,11.460801 C13.6108235,12.8963154 13.6654204,14.331792 13.7201521,15.7672875 C13.7276575,15.9644708 13.8172603,16.0657759 14.0322417,16.0684329 C14.6751653,16.0763851 15.3183006,16.0763097 15.9612627,16.0690548 C16.1760901,16.0666239 16.2682718,15.9596844 16.2766239,15.7508556 C16.3057795,15.0225929 16.4209969,12.151715 16.4489401,11.444501 M7.33577539,22.3696284 C6.5414353,22.3692138 5.93528815,21.7631165 6.00553093,21.0147473 C6.02439064,20.8139837 6.11333918,20.6086788 6.21258358,20.4277767 C6.86357065,19.2410592 11.9435676,10.1320943 13.8191848,6.75727224 C14.0554892,6.33207704 14.3881321,6.04410358 14.8908588,6.00498351 C15.4627698,5.96045522 15.8807818,6.21646932 16.1536317,6.70236093 C16.5456249,7.40041673 21.6409983,16.5713218 23.8180437,20.4472048 C24.2930196,21.29279 23.7636199,22.1392609 23.0858251,22.312192 C22.9376417,22.3499929 22.779913,22.3675932 22.6265335,22.3678005 C20.0861309,22.371117 9.89230498,22.3709097 7.33577539,22.3696284" id="Caution"></path>
        </g>
    </g>
</svg>