<?xml version="1.0" encoding="UTF-8"?>
<svg width="89px" height="54px" viewBox="0 0 89 54" version="1.1" xmlns="http://www.w3.org/2000/svg" xmlns:xlink="http://www.w3.org/1999/xlink">
    <!-- Generator: Sketch 45.1 (43504) - http://www.bohemiancoding.com/sketch -->
    <title>icon/ATM card</title>
    <desc>Created with Sketch.</desc>
    <defs>
        <polygon id="path-1" points="0 53.422 88.507 53.422 88.507 0 0 0"></polygon>
    </defs>
    <g id="1---Welcome---Log-In-/-New-Customer" stroke="none" stroke-width="1" fill="none" fill-rule="evenodd">
        <g id="Existing-Customer---Prompt" transform="translate(-191.000000, -237.000000)">
            <g id="Content" transform="translate(0.000000, 32.000000)">
                <g id="icon/ATM-card" transform="translate(191.000000, 205.000000)">
                    <path d="M83.3204,1.5 L5.1864,1.5 C3.1594,1.5 1.5004,3.159 1.5004,5.188 L1.5004,48.235 C1.5004,50.263 3.1594,51.922 5.1864,51.922 L6.8194,51.922 L81.6874,51.922 L83.3204,51.922 C85.3484,51.922 87.0074,50.263 87.0074,48.235 L87.0074,5.188 C87.0074,3.159 85.3484,1.5 83.3204,1.5 Z" id="Stroke-1" stroke="#666666" stroke-width="3" stroke-linecap="round"></path>
                    <path d="M69.9542,40.4824 L67.4552,46.6144 L65.7722,46.6144 L64.4762,41.7274 C65.3972,42.1044 66.2182,42.9244 66.5492,43.8184 L66.7172,44.6694 L68.2682,40.4824 L69.9542,40.4824 Z" id="Fill-3" fill="#88BB00" fill-rule="evenodd"></path>
                    <polygon id="Fill-5" fill="#88BB00" fill-rule="evenodd" points="70.5958 40.4736 72.1818 40.4736 71.1908 46.6216 69.6018 46.6216"></polygon>
                    <path d="M76.7198,44.6143 C76.7088,45.8863 75.6238,46.7113 73.9538,46.7113 C73.2418,46.7063 72.5588,46.5553 72.1878,46.3843 L72.4078,45.0073 L72.6118,45.1083 C73.1338,45.3363 73.4718,45.4263 74.1068,45.4263 C74.5638,45.4263 75.0538,45.2403 75.0588,44.8273 C75.0588,44.5583 74.8528,44.3653 74.2328,44.0643 C73.6308,43.7753 72.8318,43.2803 72.8428,42.3933 C72.8538,41.2003 73.9578,40.3683 75.5278,40.3683 C76.1418,40.3683 76.6358,40.5033 76.9528,40.6273 L76.7368,41.9583 L76.5928,41.8863 C76.2998,41.7633 75.9228,41.6443 75.4038,41.6523 C74.7838,41.6523 74.4958,41.9273 74.4928,42.1803 C74.4908,42.4683 74.8318,42.6583 75.3868,42.9423 C76.2998,43.3833 76.7248,43.9133 76.7198,44.6143" id="Fill-7" fill="#88BB00" fill-rule="evenodd"></path>
                    <path d="M79.0636,44.4434 C79.1976,44.0894 79.6986,42.7244 79.6986,42.7244 C79.6876,42.7414 79.8296,42.3694 79.9086,42.1374 L80.0136,42.6694 C80.0136,42.6694 80.3226,44.1314 80.3836,44.4434 L79.0636,44.4434 Z M81.0236,40.4824 L79.7966,40.4824 C79.4166,40.4824 79.1296,40.5894 78.9636,40.9924 L76.6056,46.6224 L78.2736,46.6224 C78.2736,46.6224 78.5426,45.8654 78.6076,45.6984 C78.7926,45.6984 80.4116,45.7034 80.6436,45.7034 C80.6866,45.9154 80.8346,46.6224 80.8346,46.6224 L82.3096,46.6224 L81.0236,40.4824 Z" id="Fill-9" fill="#88BB00" fill-rule="evenodd"></path>
                    <path d="M65.9952,40.9941 L66.5492,43.8181 C65.8962,42.0041 64.4532,41.0471 62.6892,40.6041 L62.7102,40.4751 L65.2722,40.4751 C65.6182,40.4911 65.8962,40.6061 65.9952,40.9941" id="Fill-11" fill="#88BB00" fill-rule="evenodd"></path>
                    <polygon id="Fill-13" fill="#88BB00" fill-rule="evenodd" points="11.9415 14.9561 6.8395 14.9561 10.0115 10.7161"></polygon>
                    <polygon id="Fill-15" fill="#88BB00" fill-rule="evenodd" points="12.5275 14.958 10.1275 10.577 11.7185 8.428"></polygon>
                    <polygon id="Fill-17" fill="#88BB00" fill-rule="evenodd" points="13.0226 14.958 11.8236 8.264 13.0226 6.658 14.2326 8.268"></polygon>
                    <polygon id="Fill-19" fill="#88BB00" fill-rule="evenodd" points="13.547 14.958 14.338 8.419 15.943 10.562"></polygon>
                    <polygon id="Fill-21" fill="#88BB00" fill-rule="evenodd" points="16.0441 10.7041 19.2301 14.9581 14.1441 14.9581"></polygon>
                    <path d="M23.6046,11.7803 L23.6046,9.3323 L24.0246,9.3323 C24.8656,9.3323 25.3056,9.7523 25.3056,10.5153 C25.3056,11.5053 24.7706,11.8603 23.6046,11.7803 M27.4396,14.5313 C26.8806,13.9913 26.2206,12.0863 25.5366,11.9313 L25.5366,11.9123 C26.4196,11.6683 26.7776,11.1063 26.7776,10.4943 C26.7776,9.6593 26.0946,8.9963 24.3926,8.9963 L21.4696,8.9963 L21.4696,9.1713 C22.1326,9.2933 22.2486,9.4853 22.2486,9.9853 L22.2486,14.0213 C22.2486,14.5003 21.9766,14.7463 21.4696,14.7863 L21.4696,14.9593 L24.3926,14.9593 L24.3926,14.7863 C23.8246,14.7053 23.6046,14.4793 23.6046,13.9503 L23.6046,12.1153 C24.1496,12.1153 24.3596,12.1273 24.6316,12.3913 C25.1076,12.8493 25.5466,14.1843 26.2206,14.9593 L27.9946,14.9593 L27.9946,14.7863 C27.7336,14.7463 27.5976,14.6843 27.4396,14.5313" id="Fill-23" fill="#88BB00" fill-rule="evenodd"></path>
                    <path d="M32.3478,14.958 L28.7228,14.958 L28.7228,14.826 C29.2508,14.716 29.3238,14.559 29.3238,14.084 L29.3238,11.12 C29.3238,10.718 29.2258,10.575 28.7228,10.481 L28.7228,10.349 L32.2898,10.349 L32.2898,11.373 L32.1528,11.373 C31.9968,10.78 31.8188,10.607 31.2918,10.607 L30.3718,10.607 L30.3718,12.517 L31.2068,12.517 C31.5908,12.517 31.7698,12.358 31.8668,11.94 L32.0218,11.94 L32.0218,13.367 L31.8668,13.367 C31.8108,12.966 31.6008,12.775 31.2068,12.775 L30.3718,12.775 L30.3718,14.132 C30.3718,14.551 30.5498,14.7 31.0228,14.7 L31.2988,14.7 C31.8828,14.7 32.1448,14.281 32.2968,13.841 L32.4368,13.841 L32.3478,14.958 Z" id="Fill-25" fill="#88BB00" fill-rule="evenodd"></path>
                    <path d="M35.9317,15.0772 C34.2147,15.0772 33.3477,13.8702 33.3477,12.6882 C33.3477,11.2782 34.4437,10.2302 35.9317,10.2302 C36.6547,10.2302 36.9787,10.5052 37.2877,10.5052 C37.4167,10.5052 37.5077,10.4662 37.6287,10.3482 L37.7767,10.3482 L37.7767,11.6412 L37.6287,11.6412 C37.3457,10.9392 36.7117,10.4902 35.9957,10.4902 C35.0207,10.4902 34.4837,11.3422 34.4837,12.7672 C34.4837,14.2432 35.1337,14.8172 36.0117,14.8172 C36.4427,14.8172 36.7277,14.7062 36.7277,14.3292 L36.7277,13.6432 C36.7277,13.3452 36.6057,13.1472 36.2407,13.0742 L36.2407,12.9422 L38.2397,12.9422 L38.2397,13.0742 C37.8907,13.1712 37.7767,13.3452 37.7767,13.7692 L37.7767,14.7462 C37.3217,14.9582 36.6467,15.0772 35.9317,15.0772" id="Fill-27" fill="#88BB00" fill-rule="evenodd"></path>
                    <path d="M41.4327,14.958 L39.1817,14.958 L39.1817,14.826 C39.7677,14.684 39.7837,14.525 39.7837,14.076 L39.7837,11.13 C39.7837,10.718 39.6787,10.601 39.1817,10.481 L39.1817,10.349 L41.4327,10.349 L41.4327,10.481 C40.8637,10.607 40.8307,10.78 40.8307,11.223 L40.8307,14.18 C40.8307,14.589 40.9377,14.706 41.4327,14.826 L41.4327,14.958 Z" id="Fill-29" fill="#88BB00" fill-rule="evenodd"></path>
                    <path d="M45.1066,14.8174 C44.0336,14.8174 43.6586,13.8084 43.6586,12.6964 C43.6586,11.2384 44.1716,10.4904 45.1066,10.4904 C46.1476,10.4904 46.5606,11.3954 46.5606,12.6884 C46.5606,14.2124 45.9026,14.8174 45.1066,14.8174 M45.1066,10.2304 C43.6026,10.2304 42.5226,11.2474 42.5226,12.6584 C42.5226,14.0684 43.6026,15.0774 45.1066,15.0774 C46.6186,15.0774 47.6986,14.0684 47.6986,12.6584 C47.6986,11.2474 46.6186,10.2304 45.1066,10.2304" id="Fill-31" fill="#88BB00" fill-rule="evenodd"></path>
                    <path d="M49.1622,10.9395 C48.7952,10.5755 48.7242,10.5205 48.5272,10.4815 L48.5272,10.3485 L49.9572,10.3485 L52.7382,13.4385 L52.7382,11.3645 C52.7382,10.8045 52.6412,10.5915 52.1362,10.4815 L52.1362,10.3485 L53.7442,10.3485 L53.7442,10.4815 C53.2002,10.5135 53.0542,10.8295 53.0542,11.2385 L53.0542,15.0155 L52.8992,15.0155 L49.4782,11.2705 L49.4782,14.0925 C49.4782,14.5975 49.6312,14.7395 50.1782,14.8265 L50.1782,14.9585 L48.5352,14.9585 L48.5352,14.8265 C49.0462,14.7465 49.1692,14.4785 49.1622,14.0305 L49.1622,10.9395 Z" id="Fill-33" fill="#88BB00" fill-rule="evenodd"></path>
                    <path d="M57.1095,12.6748 C57.4645,13.0198 57.6285,13.3358 57.6285,13.7368 C57.6285,14.7558 56.6875,15.0768 56.1015,15.0768 C55.5325,15.0768 55.1835,14.8968 54.9405,14.8968 C54.8335,14.8968 54.7455,14.9518 54.6955,15.0468 L54.5575,15.0468 L54.5575,13.6588 L54.6955,13.6588 C54.8335,14.3458 55.2885,14.8178 55.9715,14.8178 C56.4835,14.8178 56.8495,14.5418 56.8495,14.1628 C56.8495,14.0138 56.7845,13.8088 56.6055,13.6348 C56.2385,13.2798 55.4035,12.9428 55.0055,12.5558 C54.7195,12.2788 54.5835,11.9408 54.5835,11.5768 C54.5835,10.7798 55.2005,10.2308 56.0775,10.2308 C56.2555,10.2308 56.4185,10.2628 56.5645,10.2918 C56.7105,10.3238 56.8495,10.3558 56.9715,10.3558 C57.0455,10.3558 57.1265,10.3148 57.2145,10.2308 L57.3545,10.2308 L57.3545,11.4448 L57.2145,11.4448 C57.0365,10.9068 56.5245,10.4898 56.0355,10.4898 C55.6055,10.4898 55.2565,10.7658 55.2565,11.1128 C55.2565,11.2848 55.3465,11.4608 55.4915,11.6018 C55.7275,11.8298 56.8175,12.3888 57.1095,12.6748" id="Fill-35" fill="#88BB00" fill-rule="evenodd"></path>
                    <mask id="mask-2" fill="white">
                        <use xlink:href="#path-1"></use>
                    </mask>
                    <g id="Clip-38"></g>
                    <polygon id="Fill-37" fill="#59595C" fill-rule="evenodd" mask="url(#mask-2)" points="49.066 29.391 52.404 29.391 52.404 21.393 49.066 21.393"></polygon>
                    <polygon id="Fill-39" fill="#59595C" fill-rule="evenodd" mask="url(#mask-2)" points="42.807 29.391 46.145 29.391 46.145 21.393 42.807 21.393"></polygon>
                    <polygon id="Fill-40" fill="#59595C" fill-rule="evenodd" mask="url(#mask-2)" points="36.547 29.391 39.884 29.391 39.884 21.393 36.547 21.393"></polygon>
                    <polygon id="Fill-41" fill="#59595C" fill-rule="evenodd" mask="url(#mask-2)" points="21.943 29.391 25.281 29.391 25.281 21.393 21.943 21.393"></polygon>
                    <polygon id="Fill-42" fill="#59595C" fill-rule="evenodd" mask="url(#mask-2)" points="28.203 29.391 31.541 29.391 31.541 21.393 28.203 21.393"></polygon>
                    <polygon id="Fill-43" fill="#59595C" fill-rule="evenodd" mask="url(#mask-2)" points="9.425 29.391 12.763 29.391 12.763 21.393 9.425 21.393"></polygon>
                    <polygon id="Fill-44" fill="#59595C" fill-rule="evenodd" mask="url(#mask-2)" points="15.686 29.391 19.023 29.391 19.023 21.393 15.686 21.393"></polygon>
                    <polygon id="Fill-45" fill="#59595C" fill-rule="evenodd" mask="url(#mask-2)" points="69.356 29.391 72.693 29.391 72.693 21.393 69.356 21.393"></polygon>
                    <polygon id="Fill-46" fill="#59595C" fill-rule="evenodd" mask="url(#mask-2)" points="75.613 29.391 78.953 29.391 78.953 21.393 75.613 21.393"></polygon>
                    <polygon id="Fill-47" fill="#59595C" fill-rule="evenodd" mask="url(#mask-2)" points="56.837 29.391 60.173 29.391 60.173 21.393 56.837 21.393"></polygon>
                    <polygon id="Fill-48" fill="#59595C" fill-rule="evenodd" mask="url(#mask-2)" points="63.098 29.391 66.436 29.391 66.436 21.393 63.098 21.393"></polygon>
                </g>
            </g>
        </g>
    </g>
</svg>