<?xml version="1.0" encoding="UTF-8"?>
<svg width="63px" height="39px" viewBox="0 0 63 39" version="1.1" xmlns="http://www.w3.org/2000/svg" xmlns:xlink="http://www.w3.org/1999/xlink">
    <!-- Generator: Sketch 45.1 (43504) - http://www.bohemiancoding.com/sketch -->
    <title>Group</title>
    <desc>Created with Sketch.</desc>
    <defs></defs>
    <g id="1---Welcome---Log-In-/-New-Customer" stroke="none" stroke-width="1" fill="none" fill-rule="evenodd" stroke-linecap="round">
        <g id="Welcome-(full)" transform="translate(-226.000000, -248.000000)" stroke-width="3">
            <g id="Group" transform="translate(228.000000, 250.000000)">
                <path d="M56.7724828,0.344827586 L2.88765517,0.344827586 C1.48903448,0.344827586 0.344896552,1.48896552 0.344896552,2.88827586 L0.344896552,32.5758621 C0.344896552,33.9744828 1.48903448,35.1186207 2.88765517,35.1186207 L4.01386207,35.1186207 L55.6462759,35.1186207 L56.7724828,35.1186207 C58.1711034,35.1186207 59.315931,33.9744828 59.315931,32.5758621 L59.315931,2.88827586 C59.315931,1.48896552 58.1711034,0.344827586 56.7724828,0.344827586 Z" id="Stroke-1" stroke="#666666"></path>
                <path d="M15.5891724,5.1097931 C6.85055172,5.1097931 9.03468966,13.6711724 9.03468966,13.6711724 C9.03468966,13.6711724 8.73331034,14.0235862 8.48848276,14.7415172 C7.94227586,16.3470345 9.29744828,16.818069 9.58089655,18.4863448 C10.1271034,21.6973793 12.0726207,22.2325517 12.0726207,23.3028966 C12.0726207,24.3732414 9.58089655,24.9077241 9.58089655,24.9077241 C3.57331034,26.5132414 4.32434483,31.1284138 4.32434483,31.1284138" id="Stroke-3" stroke="#88BB00" stroke-linejoin="round"></path>
                <path d="M15.7764138,5.1097931 C24.5157241,5.1097931 22.3308966,13.6711724 22.3308966,13.6711724 C22.3308966,13.6711724 22.6322759,14.0235862 22.8771034,14.7415172 C23.4233103,16.3470345 22.0688276,16.818069 21.7846897,18.4863448 C21.2384828,21.6973793 19.2929655,22.2325517 19.2929655,23.3028966 C19.2929655,24.3732414 21.7846897,24.9077241 21.7846897,24.9077241 C27.7922759,26.5132414 27.0412414,31.1284138 27.0412414,31.1284138" id="Stroke-5" stroke="#88BB00" stroke-linejoin="round"></path>
                <path d="M32.8184138,7.38682759 L53.968069,7.38682759" id="Stroke-7" stroke="#666666"></path>
                <path d="M32.8184138,14.2833793 L53.968069,14.2833793" id="Stroke-9" stroke="#666666"></path>
                <path d="M32.8184138,21.179931 L53.968069,21.179931" id="Stroke-11" stroke="#666666"></path>
                <path d="M32.8184138,28.0764828 L40.1749655,28.0764828" id="Stroke-13" stroke="#666666"></path>
                <path d="M46.6115172,28.0764828 L53.968069,28.0764828" id="Stroke-15" stroke="#666666"></path>
            </g>
        </g>
    </g>
</svg>