<?xml version="1.0" encoding="UTF-8"?>
<svg width="63px" height="52px" viewBox="0 0 63 52" version="1.1" xmlns="http://www.w3.org/2000/svg" xmlns:xlink="http://www.w3.org/1999/xlink">
    <!-- Generator: Sketch 45.1 (43504) - http://www.bohemiancoding.com/sketch -->
    <title>Group</title>
    <desc>Created with Sketch.</desc>
    <defs></defs>
    <g id="Symbols" stroke="none" stroke-width="1" fill="none" fill-rule="evenodd">
        <g id="icon/Work" transform="translate(-23.000000, 2.000000)">
            <g id="Group" transform="translate(25.000000, 0.000000)">
                <path d="M56.4456456,10.1901266 L3.18007595,10.1901266 C1.63982278,10.1901266 0.379822785,11.4501266 0.379822785,12.9903797 L0.379822785,45.6843038 C0.379822785,47.2253165 1.63982278,48.4853165 3.18007595,48.4853165 L4.42032911,48.4853165 L55.2053924,48.4853165 L56.4456456,48.4853165 C57.9858987,48.4853165 59.2466582,47.2253165 59.2466582,45.6843038 L59.2466582,12.9903797 C59.2466582,11.4501266 57.9858987,10.1901266 56.4456456,10.1901266 Z" id="Stroke-1" stroke="#666666" stroke-width="3" stroke-linecap="round"></path>
                <path d="M0.379594937,31.0940506 C0.379594937,32.6343038 1.63959494,33.8950633 3.18060759,33.8950633 L4.42010127,33.8950633 L55.2059241,33.8950633 L56.4454177,33.8950633 C57.9864304,33.8950633 59.2464304,32.6343038 59.2464304,31.0940506" id="Stroke-3" stroke="#666666" stroke-width="3" stroke-linecap="round"></path>
                <path d="M38.7399494,9.29270886 L38.7399494,3.1803038 C38.7399494,1.64005063 37.4799494,0.380050633 35.9389367,0.380050633 L23.6867848,0.380050633 C22.1457722,0.380050633 20.8857722,1.64005063 20.8857722,3.1803038 L20.8857722,9.29270886" id="Stroke-5" stroke="#666666" stroke-width="3" stroke-linecap="round"></path>
                <path d="M29.8032911,24.4010127 L29.8032911,24.4010127 C31.2789873,24.4010127 32.4713924,25.5896203 32.4713924,27.0402532 C32.4713924,28.5303797 31.2789873,29.7174684 29.8032911,29.7174684 C28.3465823,29.7174684 27.1549367,28.5303797 27.1549367,27.0402532 C27.1549367,25.5896203 28.3465823,24.4010127 29.8032911,24.4010127" id="Fill-7" fill="#88BB00"></path>
            </g>
        </g>
    </g>
</svg>